<svg width="40" height="40" viewBox="0 0 40 40" fill="none" xmlns="http://www.w3.org/2000/svg"><g clip-path="url(#_4169420989__a)"><rect width="39.761" height="40" rx="4" fill="url(#_4169420989__b)"/></g><path fill-rule="evenodd" clip-rule="evenodd" d="M20.61 22.23a3.255 3.255 0 0 0 1.329-1.447c.188-.407.293-.86.293-1.336h-3.254v-3.223a3.25 3.25 0 0 0-2.07.741 3.209 3.209 0 0 0-1.177 2.482 3.21 3.21 0 0 0 1.62 2.783 3.254 3.254 0 0 0 1.627.433c.595 0 1.153-.158 1.632-.433Zm-.891-3.517h3.253a3.182 3.182 0 0 0-.76-2.07 3.269 3.269 0 0 0-2.493-1.152v3.223Zm-.141-6.43c.065-.138.147-.277.251-.408h-7.326c-1.475 0-2.63 1.226-2.63 2.688v8.602c0 1.461 1.155 2.688 2.63 2.688h5.777l-4.25 3.95-.004.004a.858.858 0 0 0-.043 1.207.852.852 0 0 0 1.207.046l4.26-3.96 4.26 3.96a.852.852 0 0 0 1.207-.046.858.858 0 0 0-.042-1.207l-.004-.004-4.25-3.95h5.777c.847 0 1.588-.405 2.066-1.025.354-.46.564-1.04.564-1.663v-.493c-.217.074-.42.09-.542.086a1.478 1.478 0 0 1-.425-.086 1.47 1.47 0 0 1-.586-.372v.865c0 .556-.37.992-.835 1.105-.078.02-.16.03-.242.03H12.503c-.572 0-1.077-.486-1.077-1.135v-8.602c0-.022 0-.044.002-.066.015-.274.12-.516.28-.7l.002-.001c.2-.229.487-.368.793-.368h6.88l-.001-.007a2.166 2.166 0 0 1-.017-.311 1.502 1.502 0 0 1 .018-.183c.026-.18.085-.41.195-.644ZM26.224 8.778c-.017-.099-.2-.106-.224-.008-.21.837-.678 2.323-1.476 3.063-.799.74-2.316 1.094-3.166 1.24-.1.017-.106.2-.009.224.837.211 2.323.678 3.063 1.477.74.798 1.094 2.315 1.24 3.166.018.099.2.106.225.008.21-.837.677-2.323 1.476-3.063.798-.74 2.315-1.094 3.166-1.24.1-.017.106-.2.008-.224-.837-.211-2.323-.678-3.063-1.477-.74-.798-1.093-2.315-1.24-3.166Zm2.545 8.147c-.008-.048-.096-.052-.108-.005-.102.403-.328 1.12-.713 1.475-.386.357-1.117.526-1.527.596-.048.008-.051.096-.004.108.403.102 1.119.328 1.475.713.356.386.525 1.117.596 1.527.008.048.096.051.108.004.102-.403.328-1.119.713-1.475.385-.356 1.116-.525 1.526-.595.048-.009.052-.097.005-.108-.404-.102-1.12-.329-1.475-.714-.356-.385-.526-1.117-.596-1.526Z" fill="#fff"/><defs><linearGradient id="_4169420989__b" x1="-19.88" y1="20" x2="20.119" y2="59.76" gradientUnits="userSpaceOnUse"><stop stop-color="#00C4CC"/><stop offset="1" stop-color="#7D2AE8"/></linearGradient><clipPath id="_4169420989__a"><rect width="39.761" height="40" rx="4" fill="#fff"/></clipPath></defs></svg>